# xmcd
#
# Track frame offsets:
#	150
#	15283
#	29933
#	45951
#	59496
#	77838
#	89147
#	102347
#	116015
#	127843
#	139703
#	153979
#	168124
#	181610
#	192742
#	207224
#	220250
#	236707
#	249490
#	264181
#
# Disc length: 3718 seconds
#
# Revision: 0
# Processed by: cddbd v1.5.2PL0 Copyright (c) Steve Scherf et al.
# Submitted via: audiograbber 1.83.01
#
DISCID=110e8414
DTITLE=Sampler - Summer In The City - 20 Brandheisse Top-Hits
DYEAR=1979
DGENRE=Pop
TTITLE0=Goombay Dance Band  - Aloha-Oe, Until We Meet Again
TTITLE1=Electric Light Orchestra  - Confusion
TTITLE2=Mike Batt  - Lady Of The Dawn
TTITLE3=Toto  - 99
TTITLE4=Styx  - Lights
TTITLE5=Tim Curry  - I Do The Rock
TTITLE6=KC And The Sunshine Band  - Please Don't Go
TTITLE7=The Brothers Johnson  - Stomp
TTITLE8=Frank Zappa  - Bobby Brown
TTITLE9=Ginger  - Blind Date
TTITLE10=Styx  - Boat On The River
TTITLE11=Barbara Dickson  - January February
TTITLE12=Garland Jeffreys  - Matador
TTITLE13=Bobby Bare  - Tequila Sheila
TTITLE14=Billy Ocean  - Are You Ready
TTITLE15=Industrials  - Voodoo Island
TTITLE16=Umberto Tozzi  - Stella Stai
TTITLE17=Johnny Logan  - What's Another Year
TTITLE18=France Joli  - Come To Me
TTITLE19=Ray Gomez  - Summer In The City
EXTD=
EXTT0=
EXTT1=
EXTT2=
EXTT3=
EXTT4=
EXTT5=
EXTT6=
EXTT7=
EXTT8=
EXTT9=
EXTT10=
EXTT11=
EXTT12=
EXTT13=
EXTT14=
EXTT15=
EXTT16=
EXTT17=
EXTT18=
EXTT19=
PLAYORDER=
